solid OpenSCAD_Model
  facet normal -0.34202 0 0.939693
    outer loop
      vertex 5.49495 54.98 2
      vertex 0 55.98 0
      vertex 5.49495 1 2
    endloop
  endfacet
  facet normal -0.34202 0 0.939693
    outer loop
      vertex 7.58304 0 2.76
      vertex 7.58304 1 2.76
      vertex 5.49495 1 2
    endloop
  endfacet
  facet normal -0.34202 0 0.939693
    outer loop
      vertex 0 0 0
      vertex 7.58304 0 2.76
      vertex 5.49495 1 2
    endloop
  endfacet
  facet normal -0.34202 0 0.939693
    outer loop
      vertex 7.58304 54.98 2.76
      vertex 7.58304 55.98 2.76
      vertex 5.49495 54.98 2
    endloop
  endfacet
  facet normal -0.34202 0 0.939693
    outer loop
      vertex 7.58304 55.98 2.76
      vertex 0 55.98 0
      vertex 5.49495 54.98 2
    endloop
  endfacet
  facet normal -0.34202 0 0.939693
    outer loop
      vertex 0 55.98 0
      vertex 0 0 0
      vertex 5.49495 1 2
    endloop
  endfacet
  facet normal 0 -1 0
    outer loop
      vertex 7.58304 0 2.76
      vertex 0 0 0
      vertex 14.6 0 0
    endloop
  endfacet
  facet normal 0 -1 0
    outer loop
      vertex 17.6 0 1
      vertex 7.58304 0 2.76
      vertex 14.6 0 1
    endloop
  endfacet
  facet normal 0 -1 0
    outer loop
      vertex 14.6 0 1
      vertex 7.58304 0 2.76
      vertex 14.6 0 0
    endloop
  endfacet
  facet normal 0 -1 0
    outer loop
      vertex 70.6452 0 0
      vertex 7.58304 0 2.76
      vertex 17.6 0 1
    endloop
  endfacet
  facet normal 0 -1 0
    outer loop
      vertex 70.6452 0 0
      vertex 17.6 0 1
      vertex 17.6 0 0
    endloop
  endfacet
  facet normal 0 -1 0
    outer loop
      vertex 70.6452 0 1
      vertex 7.58304 0 2.76
      vertex 70.6452 0 0
    endloop
  endfacet
  facet normal 0 -1 0
    outer loop
      vertex 73.6452 0 1
      vertex 7.58304 0 2.76
      vertex 70.6452 0 1
    endloop
  endfacet
  facet normal 0 -1 0
    outer loop
      vertex 87.6 0 2.76
      vertex 7.58304 0 2.76
      vertex 73.6452 0 1
    endloop
  endfacet
  facet normal 0 -1 0
    outer loop
      vertex 87.6 0 0
      vertex 73.6452 0 1
      vertex 73.6452 0 0
    endloop
  endfacet
  facet normal 0 -1 0
    outer loop
      vertex 87.6 0 2.76
      vertex 73.6452 0 1
      vertex 87.6 0 0
    endloop
  endfacet
  facet normal 0 0 -1
    outer loop
      vertex 0 0 0
      vertex 0 55.98 0
      vertex 14.6 0 0
    endloop
  endfacet
  facet normal 0 0 -1
    outer loop
      vertex 14.6 0 0
      vertex 0 55.98 0
      vertex 14.6 55.98 0
    endloop
  endfacet
  facet normal 0 0 1
    outer loop
      vertex 7.58304 1 2.76
      vertex 7.58304 0 2.76
      vertex 87.6 0 2.76
    endloop
  endfacet
  facet normal 0 0 1
    outer loop
      vertex 86.6 1 2.76
      vertex 7.58304 1 2.76
      vertex 87.6 0 2.76
    endloop
  endfacet
  facet normal 0 0 1
    outer loop
      vertex 87.6 16.0557 2.76
      vertex 86.6 1 2.76
      vertex 87.6 0 2.76
    endloop
  endfacet
  facet normal 0 0 1
    outer loop
      vertex 86.6 16.0557 2.76
      vertex 86.6 1 2.76
      vertex 87.6 16.0557 2.76
    endloop
  endfacet
  facet normal 0 1 0
    outer loop
      vertex 0 55.98 0
      vertex 7.58304 55.98 2.76
      vertex 14.6 55.98 0
    endloop
  endfacet
  facet normal 0 1 0
    outer loop
      vertex 17.6 55.98 1
      vertex 7.58304 55.98 2.76
      vertex 87.6 55.98 2.76
    endloop
  endfacet
  facet normal 0 1 0
    outer loop
      vertex 73.6452 55.98 0
      vertex 87.6 55.98 2.76
      vertex 87.6 55.98 0
    endloop
  endfacet
  facet normal 0 1 0
    outer loop
      vertex 73.6452 55.98 1
      vertex 87.6 55.98 2.76
      vertex 73.6452 55.98 0
    endloop
  endfacet
  facet normal 0 1 0
    outer loop
      vertex 70.6452 55.98 1
      vertex 87.6 55.98 2.76
      vertex 73.6452 55.98 1
    endloop
  endfacet
  facet normal 0 1 0
    outer loop
      vertex 17.6 55.98 1
      vertex 87.6 55.98 2.76
      vertex 70.6452 55.98 1
    endloop
  endfacet
  facet normal 0 1 0
    outer loop
      vertex 17.6 55.98 1
      vertex 70.6452 55.98 1
      vertex 17.6 55.98 0
    endloop
  endfacet
  facet normal 0 1 0
    outer loop
      vertex 14.6 55.98 1
      vertex 7.58304 55.98 2.76
      vertex 17.6 55.98 1
    endloop
  endfacet
  facet normal 0 1 0
    outer loop
      vertex 14.6 55.98 0
      vertex 7.58304 55.98 2.76
      vertex 14.6 55.98 1
    endloop
  endfacet
  facet normal 0 1 0
    outer loop
      vertex 70.6452 55.98 0
      vertex 17.6 55.98 0
      vertex 70.6452 55.98 1
    endloop
  endfacet
  facet normal 0 0 1
    outer loop
      vertex 7.58304 55.98 2.76
      vertex 7.58304 54.98 2.76
      vertex 86.6 54.98 2.76
    endloop
  endfacet
  facet normal 0 0 1
    outer loop
      vertex 87.6 55.98 2.76
      vertex 7.58304 55.98 2.76
      vertex 86.6 54.98 2.76
    endloop
  endfacet
  facet normal 0 0 1
    outer loop
      vertex 86.6 39.9243 2.76
      vertex 87.6 39.9243 2.76
      vertex 86.6 54.98 2.76
    endloop
  endfacet
  facet normal 0 0 1
    outer loop
      vertex 87.6 39.9243 2.76
      vertex 87.6 55.98 2.76
      vertex 86.6 54.98 2.76
    endloop
  endfacet
  facet normal 0 -1 0
    outer loop
      vertex 86.6 54.98 2
      vertex 86.6 54.98 2.76
      vertex 7.58304 54.98 2.76
    endloop
  endfacet
  facet normal 0 -1 0
    outer loop
      vertex 5.49495 54.98 2
      vertex 86.6 54.98 2
      vertex 7.58304 54.98 2.76
    endloop
  endfacet
  facet normal 0 0 1
    outer loop
      vertex 81.6 17.5977 2
      vertex 79.5704 19.0723 2
      vertex 86.6 1 2
    endloop
  endfacet
  facet normal 0 0 1
    outer loop
      vertex 86.6 1 2
      vertex 86.6 16.0557 2
      vertex 86.3457 16.0557 2
    endloop
  endfacet
  facet normal 0 0 1
    outer loop
      vertex 79.5704 19.0723 2
      vertex 77.8918 20.9366 2
      vertex 86.6 1 2
    endloop
  endfacet
  facet normal 0 0 1
    outer loop
      vertex 83.8918 16.5773 2
      vertex 86.6 1 2
      vertex 86.3457 16.0557 2
    endloop
  endfacet
  facet normal 0 0 1
    outer loop
      vertex 83.8918 16.5773 2
      vertex 81.6 17.5977 2
      vertex 86.6 1 2
    endloop
  endfacet
  facet normal 0 0 1
    outer loop
      vertex 77.8918 20.9366 2
      vertex 76.6375 23.1092 2
      vertex 86.6 1 2
    endloop
  endfacet
  facet normal 0 0 1
    outer loop
      vertex 56.0043 16.0557 2
      vertex 31.1901 16.0557 2
      vertex 86.6 1 2
    endloop
  endfacet
  facet normal 0 0 1
    outer loop
      vertex 77.8918 35.0434 2
      vertex 86.6 54.98 2
      vertex 76.6375 32.8708 2
    endloop
  endfacet
  facet normal 0 0 1
    outer loop
      vertex 79.5704 36.9077 2
      vertex 86.6 54.98 2
      vertex 77.8918 35.0434 2
    endloop
  endfacet
  facet normal 0 0 1
    outer loop
      vertex 81.6 38.3823 2
      vertex 86.6 54.98 2
      vertex 79.5704 36.9077 2
    endloop
  endfacet
  facet normal 0 0 1
    outer loop
      vertex 83.8918 39.4027 2
      vertex 86.6 54.98 2
      vertex 81.6 38.3823 2
    endloop
  endfacet
  facet normal 0 0 1
    outer loop
      vertex 86.3457 39.9243 2
      vertex 86.6 54.98 2
      vertex 83.8918 39.4027 2
    endloop
  endfacet
  facet normal 0 0 1
    outer loop
      vertex 86.6 39.9243 2
      vertex 86.6 54.98 2
      vertex 86.3457 39.9243 2
    endloop
  endfacet
  facet normal 0 0 1
    outer loop
      vertex 31.1901 16.0557 2
      vertex 5.49495 1 2
      vertex 86.6 1 2
    endloop
  endfacet
  facet normal 0 0 1
    outer loop
      vertex 5.49495 54.98 2
      vertex 5.49495 1 2
      vertex 20.4444 27.99 2
    endloop
  endfacet
  facet normal 0 0 1
    outer loop
      vertex 5.49495 54.98 2
      vertex 20.4444 27.99 2
      vertex 20.7067 30.4849 2
    endloop
  endfacet
  facet normal 0 0 1
    outer loop
      vertex 5.49495 54.98 2
      vertex 20.7067 30.4849 2
      vertex 21.4819 32.8708 2
    endloop
  endfacet
  facet normal 0 0 1
    outer loop
      vertex 5.49495 54.98 2
      vertex 21.4819 32.8708 2
      vertex 22.7362 35.0434 2
    endloop
  endfacet
  facet normal 0 0 1
    outer loop
      vertex 58.4582 16.5773 2
      vertex 56.0043 16.0557 2
      vertex 86.6 1 2
    endloop
  endfacet
  facet normal 0 0 1
    outer loop
      vertex 5.49495 54.98 2
      vertex 22.7362 35.0434 2
      vertex 24.4149 36.9077 2
    endloop
  endfacet
  facet normal 0 0 1
    outer loop
      vertex 5.49495 54.98 2
      vertex 24.4149 36.9077 2
      vertex 26.4444 38.3823 2
    endloop
  endfacet
  facet normal 0 0 1
    outer loop
      vertex 5.49495 54.98 2
      vertex 26.4444 38.3823 2
      vertex 28.7362 39.4027 2
    endloop
  endfacet
  facet normal 0 0 1
    outer loop
      vertex 60.75 17.5977 2
      vertex 58.4582 16.5773 2
      vertex 86.6 1 2
    endloop
  endfacet
  facet normal 0 0 1
    outer loop
      vertex 66.75 27.99 2
      vertex 66.4878 25.4951 2
      vertex 76.6375 23.1092 2
    endloop
  endfacet
  facet normal 0 0 1
    outer loop
      vertex 86.6 54.98 2
      vertex 5.49495 54.98 2
      vertex 56.0043 39.9243 2
    endloop
  endfacet
  facet normal 0 0 1
    outer loop
      vertex 86.6 54.98 2
      vertex 58.4582 39.4027 2
      vertex 76.6375 32.8708 2
    endloop
  endfacet
  facet normal 0 0 1
    outer loop
      vertex 86.6 54.98 2
      vertex 56.0043 39.9243 2
      vertex 58.4582 39.4027 2
    endloop
  endfacet
  facet normal 0 0 1
    outer loop
      vertex 58.4582 39.4027 2
      vertex 60.75 38.3823 2
      vertex 76.6375 32.8708 2
    endloop
  endfacet
  facet normal 0 0 1
    outer loop
      vertex 76.6375 32.8708 2
      vertex 62.7796 36.9077 2
      vertex 75.8622 30.4849 2
    endloop
  endfacet
  facet normal 0 0 1
    outer loop
      vertex 60.75 38.3823 2
      vertex 62.7796 36.9077 2
      vertex 76.6375 32.8708 2
    endloop
  endfacet
  facet normal 0 0 1
    outer loop
      vertex 62.7796 36.9077 2
      vertex 64.4582 35.0434 2
      vertex 75.8622 30.4849 2
    endloop
  endfacet
  facet normal 0 0 1
    outer loop
      vertex 62.7796 19.0723 2
      vertex 60.75 17.5977 2
      vertex 86.6 1 2
    endloop
  endfacet
  facet normal 0 0 1
    outer loop
      vertex 75.8622 30.4849 2
      vertex 65.7125 32.8708 2
      vertex 75.6 27.99 2
    endloop
  endfacet
  facet normal 0 0 1
    outer loop
      vertex 75.6 27.99 2
      vertex 66.4878 30.4849 2
      vertex 75.8622 25.4951 2
    endloop
  endfacet
  facet normal 0 0 1
    outer loop
      vertex 75.8622 25.4951 2
      vertex 66.75 27.99 2
      vertex 76.6375 23.1092 2
    endloop
  endfacet
  facet normal 0 0 1
    outer loop
      vertex 76.6375 23.1092 2
      vertex 66.4878 25.4951 2
      vertex 86.6 1 2
    endloop
  endfacet
  facet normal 0 0 1
    outer loop
      vertex 66.4878 25.4951 2
      vertex 65.7125 23.1092 2
      vertex 86.6 1 2
    endloop
  endfacet
  facet normal 0 0 1
    outer loop
      vertex 65.7125 23.1092 2
      vertex 64.4582 20.9366 2
      vertex 86.6 1 2
    endloop
  endfacet
  facet normal 0 0 1
    outer loop
      vertex 64.4582 20.9366 2
      vertex 62.7796 19.0723 2
      vertex 86.6 1 2
    endloop
  endfacet
  facet normal 0 0 1
    outer loop
      vertex 28.7362 16.5773 2
      vertex 5.49495 1 2
      vertex 31.1901 16.0557 2
    endloop
  endfacet
  facet normal 0 0 1
    outer loop
      vertex 26.4444 17.5977 2
      vertex 5.49495 1 2
      vertex 28.7362 16.5773 2
    endloop
  endfacet
  facet normal 0 0 1
    outer loop
      vertex 24.4149 19.0723 2
      vertex 5.49495 1 2
      vertex 26.4444 17.5977 2
    endloop
  endfacet
  facet normal 0 0 1
    outer loop
      vertex 22.7362 20.9366 2
      vertex 5.49495 1 2
      vertex 24.4149 19.0723 2
    endloop
  endfacet
  facet normal 0 0 1
    outer loop
      vertex 21.4819 23.1092 2
      vertex 5.49495 1 2
      vertex 22.7362 20.9366 2
    endloop
  endfacet
  facet normal 0 0 1
    outer loop
      vertex 20.7067 25.4951 2
      vertex 5.49495 1 2
      vertex 21.4819 23.1092 2
    endloop
  endfacet
  facet normal 0 0 1
    outer loop
      vertex 20.4444 27.99 2
      vertex 5.49495 1 2
      vertex 20.7067 25.4951 2
    endloop
  endfacet
  facet normal 0 0 1
    outer loop
      vertex 28.7362 39.4027 2
      vertex 31.1901 39.9243 2
      vertex 5.49495 54.98 2
    endloop
  endfacet
  facet normal 0 0 1
    outer loop
      vertex 64.4582 35.0434 2
      vertex 65.7125 32.8708 2
      vertex 75.8622 30.4849 2
    endloop
  endfacet
  facet normal 0 0 1
    outer loop
      vertex 65.7125 32.8708 2
      vertex 66.4878 30.4849 2
      vertex 75.6 27.99 2
    endloop
  endfacet
  facet normal 0 0 1
    outer loop
      vertex 66.4878 30.4849 2
      vertex 66.75 27.99 2
      vertex 75.8622 25.4951 2
    endloop
  endfacet
  facet normal 0 0 1
    outer loop
      vertex 31.1901 39.9243 2
      vertex 56.0043 39.9243 2
      vertex 5.49495 54.98 2
    endloop
  endfacet
  facet normal 0 1 0
    outer loop
      vertex 86.6 1 2.76
      vertex 86.6 1 2
      vertex 7.58304 1 2.76
    endloop
  endfacet
  facet normal 0 1 0
    outer loop
      vertex 7.58304 1 2.76
      vertex 86.6 1 2
      vertex 5.49495 1 2
    endloop
  endfacet
  facet normal 1 0 0
    outer loop
      vertex 87.6 0 2.76
      vertex 87.6 0 0
      vertex 87.6 16.0557 0
    endloop
  endfacet
  facet normal 1 0 0
    outer loop
      vertex 87.6 16.0557 2.76
      vertex 87.6 0 2.76
      vertex 87.6 16.0557 0
    endloop
  endfacet
  facet normal 0 0 -1
    outer loop
      vertex 75.8622 25.4951 0
      vertex 73.6452 0 0
      vertex 75.6 27.99 0
    endloop
  endfacet
  facet normal 0 0 -1
    outer loop
      vertex 87.6 39.9243 0
      vertex 73.6452 55.98 0
      vertex 87.6 55.98 0
    endloop
  endfacet
  facet normal 0 0 -1
    outer loop
      vertex 86.3457 39.9243 0
      vertex 73.6452 55.98 0
      vertex 87.6 39.9243 0
    endloop
  endfacet
  facet normal 0 0 -1
    outer loop
      vertex 83.8918 39.4027 0
      vertex 73.6452 55.98 0
      vertex 86.3457 39.9243 0
    endloop
  endfacet
  facet normal 0 0 -1
    outer loop
      vertex 81.6 38.3823 0
      vertex 73.6452 55.98 0
      vertex 83.8918 39.4027 0
    endloop
  endfacet
  facet normal 0 0 -1
    outer loop
      vertex 79.5704 36.9077 0
      vertex 73.6452 55.98 0
      vertex 81.6 38.3823 0
    endloop
  endfacet
  facet normal 0 0 -1
    outer loop
      vertex 76.6375 32.8708 0
      vertex 73.6452 55.98 0
      vertex 77.8918 35.0434 0
    endloop
  endfacet
  facet normal 0 0 -1
    outer loop
      vertex 75.8622 30.4849 0
      vertex 73.6452 55.98 0
      vertex 76.6375 32.8708 0
    endloop
  endfacet
  facet normal 0 0 -1
    outer loop
      vertex 75.6 27.99 0
      vertex 73.6452 55.98 0
      vertex 75.8622 30.4849 0
    endloop
  endfacet
  facet normal 0 0 -1
    outer loop
      vertex 73.6452 0 0
      vertex 73.6452 55.98 0
      vertex 75.6 27.99 0
    endloop
  endfacet
  facet normal 0 0 -1
    outer loop
      vertex 76.6375 23.1092 0
      vertex 73.6452 0 0
      vertex 75.8622 25.4951 0
    endloop
  endfacet
  facet normal 0 0 -1
    outer loop
      vertex 83.8918 16.5773 0
      vertex 87.6 0 0
      vertex 81.6 17.5977 0
    endloop
  endfacet
  facet normal 0 0 -1
    outer loop
      vertex 73.6452 0 0
      vertex 76.6375 23.1092 0
      vertex 87.6 0 0
    endloop
  endfacet
  facet normal 0 0 -1
    outer loop
      vertex 76.6375 23.1092 0
      vertex 77.8918 20.9366 0
      vertex 87.6 0 0
    endloop
  endfacet
  facet normal 0 0 -1
    outer loop
      vertex 77.8918 20.9366 0
      vertex 79.5704 19.0723 0
      vertex 87.6 0 0
    endloop
  endfacet
  facet normal 0 0 -1
    outer loop
      vertex 79.5704 19.0723 0
      vertex 81.6 17.5977 0
      vertex 87.6 0 0
    endloop
  endfacet
  facet normal 0 0 -1
    outer loop
      vertex 87.6 16.0557 0
      vertex 87.6 0 0
      vertex 86.3457 16.0557 0
    endloop
  endfacet
  facet normal 0 0 -1
    outer loop
      vertex 77.8918 35.0434 0
      vertex 73.6452 55.98 0
      vertex 79.5704 36.9077 0
    endloop
  endfacet
  facet normal 0 0 -1
    outer loop
      vertex 86.3457 16.0557 0
      vertex 87.6 0 0
      vertex 83.8918 16.5773 0
    endloop
  endfacet
  facet normal -1 0 0
    outer loop
      vertex 73.6452 55.98 1
      vertex 73.6452 55.98 0
      vertex 73.6452 0 1
    endloop
  endfacet
  facet normal -1 0 0
    outer loop
      vertex 73.6452 0 1
      vertex 73.6452 55.98 0
      vertex 73.6452 0 0
    endloop
  endfacet
  facet normal 0 0 -1
    outer loop
      vertex 73.6452 55.98 1
      vertex 73.6452 0 1
      vertex 70.6452 55.98 1
    endloop
  endfacet
  facet normal 0 0 -1
    outer loop
      vertex 70.6452 55.98 1
      vertex 73.6452 0 1
      vertex 70.6452 0 1
    endloop
  endfacet
  facet normal 1 0 0
    outer loop
      vertex 70.6452 55.98 0
      vertex 70.6452 55.98 1
      vertex 70.6452 0 1
    endloop
  endfacet
  facet normal 1 0 0
    outer loop
      vertex 70.6452 0 0
      vertex 70.6452 55.98 0
      vertex 70.6452 0 1
    endloop
  endfacet
  facet normal 0 0 -1
    outer loop
      vertex 58.4582 39.4027 0
      vertex 17.6 55.98 0
      vertex 70.6452 55.98 0
    endloop
  endfacet
  facet normal 0 0 -1
    outer loop
      vertex 17.6 0 0
      vertex 17.6 55.98 0
      vertex 20.4444 27.99 0
    endloop
  endfacet
  facet normal 0 0 -1
    outer loop
      vertex 17.6 0 0
      vertex 20.4444 27.99 0
      vertex 20.7067 25.4951 0
    endloop
  endfacet
  facet normal 0 0 -1
    outer loop
      vertex 17.6 0 0
      vertex 20.7067 25.4951 0
      vertex 21.4819 23.1092 0
    endloop
  endfacet
  facet normal 0 0 -1
    outer loop
      vertex 17.6 0 0
      vertex 21.4819 23.1092 0
      vertex 22.7362 20.9366 0
    endloop
  endfacet
  facet normal 0 0 -1
    outer loop
      vertex 17.6 0 0
      vertex 22.7362 20.9366 0
      vertex 24.4149 19.0723 0
    endloop
  endfacet
  facet normal 0 0 -1
    outer loop
      vertex 17.6 0 0
      vertex 24.4149 19.0723 0
      vertex 26.4444 17.5977 0
    endloop
  endfacet
  facet normal 0 0 -1
    outer loop
      vertex 17.6 0 0
      vertex 26.4444 17.5977 0
      vertex 28.7362 16.5773 0
    endloop
  endfacet
  facet normal 0 0 -1
    outer loop
      vertex 17.6 0 0
      vertex 28.7362 16.5773 0
      vertex 70.6452 0 0
    endloop
  endfacet
  facet normal 0 0 -1
    outer loop
      vertex 56.0043 16.0557 0
      vertex 70.6452 0 0
      vertex 31.1901 16.0557 0
    endloop
  endfacet
  facet normal 0 0 -1
    outer loop
      vertex 66.4878 30.4849 0
      vertex 70.6452 55.98 0
      vertex 66.75 27.99 0
    endloop
  endfacet
  facet normal 0 0 -1
    outer loop
      vertex 70.6452 0 0
      vertex 56.0043 16.0557 0
      vertex 58.4582 16.5773 0
    endloop
  endfacet
  facet normal 0 0 -1
    outer loop
      vertex 70.6452 0 0
      vertex 58.4582 16.5773 0
      vertex 60.75 17.5977 0
    endloop
  endfacet
  facet normal 0 0 -1
    outer loop
      vertex 70.6452 0 0
      vertex 60.75 17.5977 0
      vertex 62.7796 19.0723 0
    endloop
  endfacet
  facet normal 0 0 -1
    outer loop
      vertex 70.6452 0 0
      vertex 62.7796 19.0723 0
      vertex 64.4582 20.9366 0
    endloop
  endfacet
  facet normal 0 0 -1
    outer loop
      vertex 70.6452 0 0
      vertex 64.4582 20.9366 0
      vertex 65.7125 23.1092 0
    endloop
  endfacet
  facet normal 0 0 -1
    outer loop
      vertex 70.6452 0 0
      vertex 65.7125 23.1092 0
      vertex 66.4878 25.4951 0
    endloop
  endfacet
  facet normal 0 0 -1
    outer loop
      vertex 70.6452 0 0
      vertex 66.4878 25.4951 0
      vertex 70.6452 55.98 0
    endloop
  endfacet
  facet normal 0 0 -1
    outer loop
      vertex 66.4878 25.4951 0
      vertex 66.75 27.99 0
      vertex 70.6452 55.98 0
    endloop
  endfacet
  facet normal 0 0 -1
    outer loop
      vertex 65.7125 32.8708 0
      vertex 70.6452 55.98 0
      vertex 66.4878 30.4849 0
    endloop
  endfacet
  facet normal 0 0 -1
    outer loop
      vertex 64.4582 35.0434 0
      vertex 70.6452 55.98 0
      vertex 65.7125 32.8708 0
    endloop
  endfacet
  facet normal 0 0 -1
    outer loop
      vertex 62.7796 36.9077 0
      vertex 70.6452 55.98 0
      vertex 64.4582 35.0434 0
    endloop
  endfacet
  facet normal 0 0 -1
    outer loop
      vertex 56.0043 39.9243 0
      vertex 17.6 55.98 0
      vertex 58.4582 39.4027 0
    endloop
  endfacet
  facet normal 0 0 -1
    outer loop
      vertex 31.1901 39.9243 0
      vertex 17.6 55.98 0
      vertex 56.0043 39.9243 0
    endloop
  endfacet
  facet normal 0 0 -1
    outer loop
      vertex 62.7796 36.9077 0
      vertex 60.75 38.3823 0
      vertex 70.6452 55.98 0
    endloop
  endfacet
  facet normal 0 0 -1
    outer loop
      vertex 60.75 38.3823 0
      vertex 58.4582 39.4027 0
      vertex 70.6452 55.98 0
    endloop
  endfacet
  facet normal 0 0 -1
    outer loop
      vertex 28.7362 39.4027 0
      vertex 17.6 55.98 0
      vertex 31.1901 39.9243 0
    endloop
  endfacet
  facet normal 0 0 -1
    outer loop
      vertex 26.4444 38.3823 0
      vertex 17.6 55.98 0
      vertex 28.7362 39.4027 0
    endloop
  endfacet
  facet normal 0 0 -1
    outer loop
      vertex 24.4149 36.9077 0
      vertex 17.6 55.98 0
      vertex 26.4444 38.3823 0
    endloop
  endfacet
  facet normal 0 0 -1
    outer loop
      vertex 22.7362 35.0434 0
      vertex 17.6 55.98 0
      vertex 24.4149 36.9077 0
    endloop
  endfacet
  facet normal 0 0 -1
    outer loop
      vertex 21.4819 32.8708 0
      vertex 17.6 55.98 0
      vertex 22.7362 35.0434 0
    endloop
  endfacet
  facet normal 0 0 -1
    outer loop
      vertex 20.7067 30.4849 0
      vertex 17.6 55.98 0
      vertex 21.4819 32.8708 0
    endloop
  endfacet
  facet normal 0 0 -1
    outer loop
      vertex 20.4444 27.99 0
      vertex 17.6 55.98 0
      vertex 20.7067 30.4849 0
    endloop
  endfacet
  facet normal 0 0 -1
    outer loop
      vertex 31.1901 16.0557 0
      vertex 70.6452 0 0
      vertex 28.7362 16.5773 0
    endloop
  endfacet
  facet normal -1 0 0
    outer loop
      vertex 17.6 55.98 1
      vertex 17.6 55.98 0
      vertex 17.6 0 1
    endloop
  endfacet
  facet normal -1 0 0
    outer loop
      vertex 17.6 0 1
      vertex 17.6 55.98 0
      vertex 17.6 0 0
    endloop
  endfacet
  facet normal 0 0 -1
    outer loop
      vertex 17.6 55.98 1
      vertex 17.6 0 1
      vertex 14.6 55.98 1
    endloop
  endfacet
  facet normal 0 0 -1
    outer loop
      vertex 14.6 55.98 1
      vertex 17.6 0 1
      vertex 14.6 0 1
    endloop
  endfacet
  facet normal 1 0 0
    outer loop
      vertex 14.6 55.98 0
      vertex 14.6 55.98 1
      vertex 14.6 0 1
    endloop
  endfacet
  facet normal 1 0 0
    outer loop
      vertex 14.6 0 0
      vertex 14.6 55.98 0
      vertex 14.6 0 1
    endloop
  endfacet
  facet normal -1 0 0
    outer loop
      vertex 86.6 16.0557 2.76
      vertex 86.6 16.0557 2
      vertex 86.6 1 2.76
    endloop
  endfacet
  facet normal -1 0 0
    outer loop
      vertex 86.6 1 2.76
      vertex 86.6 16.0557 2
      vertex 86.6 1 2
    endloop
  endfacet
  facet normal 0 1 0
    outer loop
      vertex 86.6 16.0557 2
      vertex 86.6 16.0557 2.76
      vertex 87.6 16.0557 2.76
    endloop
  endfacet
  facet normal 0 1 0
    outer loop
      vertex 86.6 16.0557 2
      vertex 87.6 16.0557 2.76
      vertex 87.6 16.0557 0
    endloop
  endfacet
  facet normal 0 1 0
    outer loop
      vertex 86.6 16.0557 2
      vertex 87.6 16.0557 0
      vertex 86.3457 16.0557 2
    endloop
  endfacet
  facet normal 0 1 0
    outer loop
      vertex 87.6 16.0557 0
      vertex 86.3457 16.0557 0
      vertex 86.3457 16.0557 2
    endloop
  endfacet
  facet normal 1 0 0
    outer loop
      vertex 87.6 39.9243 2.76
      vertex 87.6 39.9243 0
      vertex 87.6 55.98 0
    endloop
  endfacet
  facet normal 1 0 0
    outer loop
      vertex 87.6 55.98 2.76
      vertex 87.6 39.9243 2.76
      vertex 87.6 55.98 0
    endloop
  endfacet
  facet normal 0 -1 0
    outer loop
      vertex 87.6 39.9243 0
      vertex 87.6 39.9243 2.76
      vertex 86.6 39.9243 2.76
    endloop
  endfacet
  facet normal 0 -1 0
    outer loop
      vertex 86.3457 39.9243 2
      vertex 87.6 39.9243 0
      vertex 86.6 39.9243 2
    endloop
  endfacet
  facet normal 0 -1 0
    outer loop
      vertex 86.6 39.9243 2
      vertex 87.6 39.9243 0
      vertex 86.6 39.9243 2.76
    endloop
  endfacet
  facet normal 0 -1 0
    outer loop
      vertex 86.3457 39.9243 0
      vertex 87.6 39.9243 0
      vertex 86.3457 39.9243 2
    endloop
  endfacet
  facet normal -1 0 0
    outer loop
      vertex 86.6 54.98 2.76
      vertex 86.6 54.98 2
      vertex 86.6 39.9243 2.76
    endloop
  endfacet
  facet normal -1 0 0
    outer loop
      vertex 86.6 39.9243 2.76
      vertex 86.6 54.98 2
      vertex 86.6 39.9243 2
    endloop
  endfacet
  facet normal 0.207912 -0.978148 0
    outer loop
      vertex 86.3457 39.9243 0
      vertex 86.3457 39.9243 2
      vertex 83.8918 39.4027 2
    endloop
  endfacet
  facet normal 0.207912 -0.978148 0
    outer loop
      vertex 83.8918 39.4027 0
      vertex 86.3457 39.9243 0
      vertex 83.8918 39.4027 2
    endloop
  endfacet
  facet normal 0.406737 -0.913546 0
    outer loop
      vertex 83.8918 39.4027 0
      vertex 83.8918 39.4027 2
      vertex 81.6 38.3823 2
    endloop
  endfacet
  facet normal 0.406737 -0.913546 0
    outer loop
      vertex 81.6 38.3823 0
      vertex 83.8918 39.4027 0
      vertex 81.6 38.3823 2
    endloop
  endfacet
  facet normal 0.587785 -0.809017 0
    outer loop
      vertex 81.6 38.3823 0
      vertex 81.6 38.3823 2
      vertex 79.5704 36.9077 2
    endloop
  endfacet
  facet normal 0.587785 -0.809017 0
    outer loop
      vertex 79.5704 36.9077 0
      vertex 81.6 38.3823 0
      vertex 79.5704 36.9077 2
    endloop
  endfacet
  facet normal 0.743145 -0.669131 0
    outer loop
      vertex 79.5704 36.9077 0
      vertex 79.5704 36.9077 2
      vertex 77.8918 35.0434 2
    endloop
  endfacet
  facet normal 0.743145 -0.669131 0
    outer loop
      vertex 77.8918 35.0434 0
      vertex 79.5704 36.9077 0
      vertex 77.8918 35.0434 2
    endloop
  endfacet
  facet normal 0.866025 -0.5 0
    outer loop
      vertex 77.8918 35.0434 0
      vertex 77.8918 35.0434 2
      vertex 76.6375 32.8708 2
    endloop
  endfacet
  facet normal 0.866025 -0.5 0
    outer loop
      vertex 76.6375 32.8708 0
      vertex 77.8918 35.0434 0
      vertex 76.6375 32.8708 2
    endloop
  endfacet
  facet normal 0.951057 -0.309017 0
    outer loop
      vertex 76.6375 32.8708 0
      vertex 76.6375 32.8708 2
      vertex 75.8622 30.4849 2
    endloop
  endfacet
  facet normal 0.951057 -0.309017 0
    outer loop
      vertex 75.8622 30.4849 0
      vertex 76.6375 32.8708 0
      vertex 75.8622 30.4849 2
    endloop
  endfacet
  facet normal 0.994522 -0.104529 0
    outer loop
      vertex 75.8622 30.4849 0
      vertex 75.8622 30.4849 2
      vertex 75.6 27.99 2
    endloop
  endfacet
  facet normal 0.994522 -0.104529 0
    outer loop
      vertex 75.6 27.99 0
      vertex 75.8622 30.4849 0
      vertex 75.6 27.99 2
    endloop
  endfacet
  facet normal 0.994522 0.104529 0
    outer loop
      vertex 75.6 27.99 2
      vertex 75.8622 25.4951 2
      vertex 75.8622 25.4951 0
    endloop
  endfacet
  facet normal 0.994522 0.104529 0
    outer loop
      vertex 75.6 27.99 0
      vertex 75.6 27.99 2
      vertex 75.8622 25.4951 0
    endloop
  endfacet
  facet normal 0.951057 0.309017 0
    outer loop
      vertex 75.8622 25.4951 2
      vertex 76.6375 23.1092 2
      vertex 76.6375 23.1092 0
    endloop
  endfacet
  facet normal 0.951057 0.309017 0
    outer loop
      vertex 75.8622 25.4951 0
      vertex 75.8622 25.4951 2
      vertex 76.6375 23.1092 0
    endloop
  endfacet
  facet normal 0.866025 0.5 0
    outer loop
      vertex 76.6375 23.1092 2
      vertex 77.8918 20.9366 2
      vertex 77.8918 20.9366 0
    endloop
  endfacet
  facet normal 0.866025 0.5 0
    outer loop
      vertex 76.6375 23.1092 0
      vertex 76.6375 23.1092 2
      vertex 77.8918 20.9366 0
    endloop
  endfacet
  facet normal 0.743145 0.669131 0
    outer loop
      vertex 77.8918 20.9366 2
      vertex 79.5704 19.0723 2
      vertex 79.5704 19.0723 0
    endloop
  endfacet
  facet normal 0.743145 0.669131 0
    outer loop
      vertex 77.8918 20.9366 0
      vertex 77.8918 20.9366 2
      vertex 79.5704 19.0723 0
    endloop
  endfacet
  facet normal 0.587785 0.809017 0
    outer loop
      vertex 81.6 17.5977 2
      vertex 81.6 17.5977 0
      vertex 79.5704 19.0723 2
    endloop
  endfacet
  facet normal 0.587785 0.809017 0
    outer loop
      vertex 79.5704 19.0723 2
      vertex 81.6 17.5977 0
      vertex 79.5704 19.0723 0
    endloop
  endfacet
  facet normal 0.406737 0.913546 0
    outer loop
      vertex 83.8918 16.5773 2
      vertex 83.8918 16.5773 0
      vertex 81.6 17.5977 2
    endloop
  endfacet
  facet normal 0.406737 0.913546 0
    outer loop
      vertex 81.6 17.5977 2
      vertex 83.8918 16.5773 0
      vertex 81.6 17.5977 0
    endloop
  endfacet
  facet normal 0.207912 0.978148 0
    outer loop
      vertex 86.3457 16.0557 2
      vertex 86.3457 16.0557 0
      vertex 83.8918 16.5773 2
    endloop
  endfacet
  facet normal 0.207912 0.978148 0
    outer loop
      vertex 83.8918 16.5773 2
      vertex 86.3457 16.0557 0
      vertex 83.8918 16.5773 0
    endloop
  endfacet
  facet normal 0.994522 -0.104529 0
    outer loop
      vertex 20.7067 30.4849 0
      vertex 20.7067 30.4849 2
      vertex 20.4444 27.99 2
    endloop
  endfacet
  facet normal 0.994522 -0.104529 0
    outer loop
      vertex 20.4444 27.99 0
      vertex 20.7067 30.4849 0
      vertex 20.4444 27.99 2
    endloop
  endfacet
  facet normal 0.994522 0.104529 0
    outer loop
      vertex 20.4444 27.99 2
      vertex 20.7067 25.4951 2
      vertex 20.7067 25.4951 0
    endloop
  endfacet
  facet normal 0.994522 0.104529 0
    outer loop
      vertex 20.4444 27.99 0
      vertex 20.4444 27.99 2
      vertex 20.7067 25.4951 0
    endloop
  endfacet
  facet normal 0.951057 0.309017 0
    outer loop
      vertex 20.7067 25.4951 2
      vertex 21.4819 23.1092 2
      vertex 21.4819 23.1092 0
    endloop
  endfacet
  facet normal 0.951057 0.309017 0
    outer loop
      vertex 20.7067 25.4951 0
      vertex 20.7067 25.4951 2
      vertex 21.4819 23.1092 0
    endloop
  endfacet
  facet normal 0.866025 0.5 0
    outer loop
      vertex 21.4819 23.1092 2
      vertex 22.7362 20.9366 2
      vertex 22.7362 20.9366 0
    endloop
  endfacet
  facet normal 0.866025 0.5 0
    outer loop
      vertex 21.4819 23.1092 0
      vertex 21.4819 23.1092 2
      vertex 22.7362 20.9366 0
    endloop
  endfacet
  facet normal 0.743145 0.669131 0
    outer loop
      vertex 22.7362 20.9366 2
      vertex 24.4149 19.0723 2
      vertex 24.4149 19.0723 0
    endloop
  endfacet
  facet normal 0.743145 0.669131 0
    outer loop
      vertex 22.7362 20.9366 0
      vertex 22.7362 20.9366 2
      vertex 24.4149 19.0723 0
    endloop
  endfacet
  facet normal 0.587785 0.809017 0
    outer loop
      vertex 26.4444 17.5977 2
      vertex 26.4444 17.5977 0
      vertex 24.4149 19.0723 2
    endloop
  endfacet
  facet normal 0.587785 0.809017 0
    outer loop
      vertex 24.4149 19.0723 2
      vertex 26.4444 17.5977 0
      vertex 24.4149 19.0723 0
    endloop
  endfacet
  facet normal 0.406737 0.913546 0
    outer loop
      vertex 28.7362 16.5773 2
      vertex 28.7362 16.5773 0
      vertex 26.4444 17.5977 2
    endloop
  endfacet
  facet normal 0.406737 0.913546 0
    outer loop
      vertex 26.4444 17.5977 2
      vertex 28.7362 16.5773 0
      vertex 26.4444 17.5977 0
    endloop
  endfacet
  facet normal 0.207912 0.978148 0
    outer loop
      vertex 31.1901 16.0557 2
      vertex 31.1901 16.0557 0
      vertex 28.7362 16.5773 2
    endloop
  endfacet
  facet normal 0.207912 0.978148 0
    outer loop
      vertex 28.7362 16.5773 2
      vertex 31.1901 16.0557 0
      vertex 28.7362 16.5773 0
    endloop
  endfacet
  facet normal 0 1 0
    outer loop
      vertex 56.0043 16.0557 2
      vertex 56.0043 16.0557 0
      vertex 31.1901 16.0557 2
    endloop
  endfacet
  facet normal 0 1 0
    outer loop
      vertex 31.1901 16.0557 2
      vertex 56.0043 16.0557 0
      vertex 31.1901 16.0557 0
    endloop
  endfacet
  facet normal -0.207912 0.978148 0
    outer loop
      vertex 58.4582 16.5773 2
      vertex 58.4582 16.5773 0
      vertex 56.0043 16.0557 2
    endloop
  endfacet
  facet normal -0.207912 0.978148 0
    outer loop
      vertex 56.0043 16.0557 2
      vertex 58.4582 16.5773 0
      vertex 56.0043 16.0557 0
    endloop
  endfacet
  facet normal -0.406737 0.913546 0
    outer loop
      vertex 60.75 17.5977 2
      vertex 60.75 17.5977 0
      vertex 58.4582 16.5773 2
    endloop
  endfacet
  facet normal -0.406737 0.913546 0
    outer loop
      vertex 58.4582 16.5773 2
      vertex 60.75 17.5977 0
      vertex 58.4582 16.5773 0
    endloop
  endfacet
  facet normal -0.587785 0.809017 0
    outer loop
      vertex 62.7796 19.0723 2
      vertex 62.7796 19.0723 0
      vertex 60.75 17.5977 2
    endloop
  endfacet
  facet normal -0.587785 0.809017 0
    outer loop
      vertex 60.75 17.5977 2
      vertex 62.7796 19.0723 0
      vertex 60.75 17.5977 0
    endloop
  endfacet
  facet normal -0.743145 0.669131 0
    outer loop
      vertex 64.4582 20.9366 2
      vertex 64.4582 20.9366 0
      vertex 62.7796 19.0723 2
    endloop
  endfacet
  facet normal -0.743145 0.669131 0
    outer loop
      vertex 62.7796 19.0723 2
      vertex 64.4582 20.9366 0
      vertex 62.7796 19.0723 0
    endloop
  endfacet
  facet normal -0.866025 0.5 0
    outer loop
      vertex 65.7125 23.1092 2
      vertex 65.7125 23.1092 0
      vertex 64.4582 20.9366 2
    endloop
  endfacet
  facet normal -0.866025 0.5 0
    outer loop
      vertex 64.4582 20.9366 2
      vertex 65.7125 23.1092 0
      vertex 64.4582 20.9366 0
    endloop
  endfacet
  facet normal -0.951057 0.309017 0
    outer loop
      vertex 66.4878 25.4951 2
      vertex 66.4878 25.4951 0
      vertex 65.7125 23.1092 2
    endloop
  endfacet
  facet normal -0.951057 0.309017 0
    outer loop
      vertex 65.7125 23.1092 2
      vertex 66.4878 25.4951 0
      vertex 65.7125 23.1092 0
    endloop
  endfacet
  facet normal -0.994522 0.104529 0
    outer loop
      vertex 66.75 27.99 2
      vertex 66.75 27.99 0
      vertex 66.4878 25.4951 2
    endloop
  endfacet
  facet normal -0.994522 0.104529 0
    outer loop
      vertex 66.4878 25.4951 2
      vertex 66.75 27.99 0
      vertex 66.4878 25.4951 0
    endloop
  endfacet
  facet normal -0.994522 -0.104529 0
    outer loop
      vertex 66.75 27.99 2
      vertex 66.4878 30.4849 2
      vertex 66.75 27.99 0
    endloop
  endfacet
  facet normal -0.994522 -0.104529 0
    outer loop
      vertex 66.75 27.99 0
      vertex 66.4878 30.4849 2
      vertex 66.4878 30.4849 0
    endloop
  endfacet
  facet normal -0.951057 -0.309017 0
    outer loop
      vertex 66.4878 30.4849 2
      vertex 65.7125 32.8708 2
      vertex 66.4878 30.4849 0
    endloop
  endfacet
  facet normal -0.951057 -0.309017 0
    outer loop
      vertex 66.4878 30.4849 0
      vertex 65.7125 32.8708 2
      vertex 65.7125 32.8708 0
    endloop
  endfacet
  facet normal -0.866025 -0.5 0
    outer loop
      vertex 65.7125 32.8708 2
      vertex 64.4582 35.0434 2
      vertex 65.7125 32.8708 0
    endloop
  endfacet
  facet normal -0.866025 -0.5 0
    outer loop
      vertex 65.7125 32.8708 0
      vertex 64.4582 35.0434 2
      vertex 64.4582 35.0434 0
    endloop
  endfacet
  facet normal -0.743145 -0.669131 0
    outer loop
      vertex 64.4582 35.0434 2
      vertex 62.7796 36.9077 2
      vertex 64.4582 35.0434 0
    endloop
  endfacet
  facet normal -0.743145 -0.669131 0
    outer loop
      vertex 64.4582 35.0434 0
      vertex 62.7796 36.9077 2
      vertex 62.7796 36.9077 0
    endloop
  endfacet
  facet normal -0.587785 -0.809017 0
    outer loop
      vertex 62.7796 36.9077 0
      vertex 62.7796 36.9077 2
      vertex 60.75 38.3823 2
    endloop
  endfacet
  facet normal -0.587785 -0.809017 0
    outer loop
      vertex 60.75 38.3823 0
      vertex 62.7796 36.9077 0
      vertex 60.75 38.3823 2
    endloop
  endfacet
  facet normal -0.406737 -0.913546 0
    outer loop
      vertex 60.75 38.3823 0
      vertex 60.75 38.3823 2
      vertex 58.4582 39.4027 2
    endloop
  endfacet
  facet normal -0.406737 -0.913546 0
    outer loop
      vertex 58.4582 39.4027 0
      vertex 60.75 38.3823 0
      vertex 58.4582 39.4027 2
    endloop
  endfacet
  facet normal -0.207912 -0.978148 0
    outer loop
      vertex 58.4582 39.4027 0
      vertex 58.4582 39.4027 2
      vertex 56.0043 39.9243 2
    endloop
  endfacet
  facet normal -0.207912 -0.978148 0
    outer loop
      vertex 56.0043 39.9243 0
      vertex 58.4582 39.4027 0
      vertex 56.0043 39.9243 2
    endloop
  endfacet
  facet normal 0 -1 0
    outer loop
      vertex 56.0043 39.9243 0
      vertex 56.0043 39.9243 2
      vertex 31.1901 39.9243 2
    endloop
  endfacet
  facet normal 0 -1 0
    outer loop
      vertex 31.1901 39.9243 0
      vertex 56.0043 39.9243 0
      vertex 31.1901 39.9243 2
    endloop
  endfacet
  facet normal 0.207912 -0.978148 0
    outer loop
      vertex 31.1901 39.9243 0
      vertex 31.1901 39.9243 2
      vertex 28.7362 39.4027 2
    endloop
  endfacet
  facet normal 0.207912 -0.978148 0
    outer loop
      vertex 28.7362 39.4027 0
      vertex 31.1901 39.9243 0
      vertex 28.7362 39.4027 2
    endloop
  endfacet
  facet normal 0.406737 -0.913546 0
    outer loop
      vertex 28.7362 39.4027 0
      vertex 28.7362 39.4027 2
      vertex 26.4444 38.3823 2
    endloop
  endfacet
  facet normal 0.406737 -0.913546 0
    outer loop
      vertex 26.4444 38.3823 0
      vertex 28.7362 39.4027 0
      vertex 26.4444 38.3823 2
    endloop
  endfacet
  facet normal 0.587785 -0.809017 0
    outer loop
      vertex 26.4444 38.3823 0
      vertex 26.4444 38.3823 2
      vertex 24.4149 36.9077 2
    endloop
  endfacet
  facet normal 0.587785 -0.809017 0
    outer loop
      vertex 24.4149 36.9077 0
      vertex 26.4444 38.3823 0
      vertex 24.4149 36.9077 2
    endloop
  endfacet
  facet normal 0.743145 -0.669131 0
    outer loop
      vertex 24.4149 36.9077 0
      vertex 24.4149 36.9077 2
      vertex 22.7362 35.0434 2
    endloop
  endfacet
  facet normal 0.743145 -0.669131 0
    outer loop
      vertex 22.7362 35.0434 0
      vertex 24.4149 36.9077 0
      vertex 22.7362 35.0434 2
    endloop
  endfacet
  facet normal 0.866025 -0.5 0
    outer loop
      vertex 22.7362 35.0434 0
      vertex 22.7362 35.0434 2
      vertex 21.4819 32.8708 2
    endloop
  endfacet
  facet normal 0.866025 -0.5 0
    outer loop
      vertex 21.4819 32.8708 0
      vertex 22.7362 35.0434 0
      vertex 21.4819 32.8708 2
    endloop
  endfacet
  facet normal 0.951057 -0.309017 0
    outer loop
      vertex 21.4819 32.8708 0
      vertex 21.4819 32.8708 2
      vertex 20.7067 30.4849 2
    endloop
  endfacet
  facet normal 0.951057 -0.309017 0
    outer loop
      vertex 20.7067 30.4849 0
      vertex 21.4819 32.8708 0
      vertex 20.7067 30.4849 2
    endloop
  endfacet
endsolid OpenSCAD_Model
